<svg id="mechanism-cot-scene" class="mechanism-scene" viewBox="0 0 1200 420" role="img" aria-label="Thinking trace targeted retrieval and progress-state hypothesis">
          <defs>
            <marker id="cot-arrow" viewBox="0 0 10 10" refX="8" refY="5" markerWidth="7" markerHeight="7" orient="auto-start-reverse"><path d="M 0 0 L 10 5 L 0 10 z" fill="currentColor"/></marker>
          </defs>
          <g data-step="0" class="mech-step">
            <rect class="mech-region prompt" x="38" y="28" width="730" height="132" rx="14"/>
            <text class="mech-region-title" x="62" y="58">Prompt body</text>
            <g class="mech-node needle"><rect x="120" y="78" width="55" height="44" rx="7"/><text x="147" y="106">M₁</text></g>
            <g class="mech-node needle"><rect x="235" y="78" width="55" height="44" rx="7"/><text x="262" y="106">M₂</text></g>
            <g class="mech-node needle target"><rect x="360" y="78" width="55" height="44" rx="7"/><text x="387" y="106">M₃</text></g>
            <g class="mech-node needle"><rect x="600" y="78" width="55" height="44" rx="7"/><text x="627" y="106">Mₙ</text></g>
            <text class="mech-ellipsis" x="505" y="106">…</text>
            <rect class="mech-region trace" x="38" y="218" width="730" height="132" rx="14"/>
            <text class="mech-region-title" x="62" y="248">Generated thinking trace</text>
            <g class="mech-node trace-token"><rect x="120" y="274" width="52" height="44" rx="7"/><text x="146" y="302">1</text></g>
            <g class="mech-node trace-marker"><rect x="180" y="274" width="58" height="44" rx="7"/><text x="209" y="302">M₁</text></g>
            <g class="mech-node trace-token"><rect x="255" y="274" width="52" height="44" rx="7"/><text x="281" y="302">2</text></g>
            <g class="mech-node trace-marker"><rect x="315" y="274" width="58" height="44" rx="7"/><text x="344" y="302">M₂</text></g>
            <g class="mech-node trace-token target"><rect x="405" y="274" width="52" height="44" rx="7"/><text x="431" y="302">3</text></g>
          </g>
          <g data-step="1" class="mech-step mech-links targeted-link">
            <path d="M 431 274 C 440 220, 430 158, 389 122"/><text x="470" y="190">k-to-k targeted retrieval</text>
          </g>
          <g data-step="2" class="mech-step">
            <g class="mech-node trace-marker active-marker"><rect x="470" y="274" width="58" height="44" rx="7"/><text x="499" y="302">M₃</text></g>
             <g class="mech-node state"><rect x="820" y="82" width="245" height="82" rx="11"/><text x="942" y="113">trace progress state</text><text class="mech-subtext" x="942" y="138">retrieval step k; not final scalar count</text></g>
            <path class="mech-flow-arrow cot" d="M 528 296 C 680 292, 760 190, 835 153"/>
          </g>
          <g data-step="3" class="mech-step">
            <g class="mech-node trace-token successor"><rect x="550" y="274" width="52" height="44" rx="7"/><text x="576" y="302">4</text></g>
            <path class="mech-loop-arrow" d="M 528 318 C 535 365, 600 365, 603 318"/>
            <text x="620" y="372">successor step: emit k+1, then repeat retrieval</text>
          </g>
          <g data-step="4" class="mech-step">
             <g class="mech-node state"><rect x="785" y="265" width="205" height="78" rx="10"/><text x="887" y="294">final scalar-count state</text><text class="mech-subtext" x="887" y="320">causally sufficient; source unresolved</text></g>
             <g class="mech-node answer"><rect x="1030" y="268" width="115" height="72" rx="10"/><text x="1087" y="296">output</text><text class="mech-answer-token" x="1087" y="323"><Cₙ></text></g>
             <path class="mech-uncertain-arrow" d="M 942 164 C 920 205, 900 230, 892 264"/>
             <path class="mech-flow-arrow cot" d="M 990 304 L 1025 304"/>
             <text x="760" y="222">unresolved compression from trace/context</text>
          </g>
        </svg>